<?xml version="1.0" standalone="no"?>
<!DOCTYPE svg PUBLIC "-//W3C//DTD SVG 20010904//EN"
 "http://www.w3.org/TR/2001/REC-SVG-20010904/DTD/svg10.dtd">
<svg version="1.0" xmlns="http://www.w3.org/2000/svg"
 width="700.000000pt" height="700.000000pt" viewBox="0 0 700.000000 700.000000"
 preserveAspectRatio="xMidYMid meet">
<metadata>
Created by potrace 1.14, written by Peter Selinger 2001-2017
</metadata>
<g transform="translate(0.000000,700.000000) scale(0.100000,-0.100000)"
fill="#000000" stroke="none">
<path d="M3210 6778 c-35 -18 -76 -49 -91 -68 -39 -50 -2602 -4258 -2619
-4300 -38 -90 -6 -232 68 -302 53 -51 3175 -1998 3231 -2015 93 -29 218 5 287
79 17 18 502 806 1078 1751 1158 1901 1093 1784 1062 1905 -26 101 -55 134
-206 235 -262 175 -401 300 -456 413 -26 52 -29 69 -28 149 1 75 6 104 33 175
17 47 52 121 76 165 80 142 89 164 89 240 1 57 -4 80 -27 127 -15 31 -43 70
-61 86 -49 43 -2163 1362 -2209 1378 -22 8 -68 14 -102 14 -50 0 -74 -6 -125
-32z m748 -984 c279 -175 513 -322 519 -328 10 -9 -48 -111 -260 -459 -149
-246 -275 -447 -279 -447 -7 0 -1028 637 -1042 650 -6 7 153 274 507 853 16
26 33 47 38 47 5 0 237 -142 517 -316z m1073 -671 c20 -12 27 -23 23 -33 -29
-69 -76 -220 -90 -289 -23 -114 -15 -325 15 -430 27 -92 86 -212 148 -299 65
-91 219 -243 330 -326 l92 -69 -24 -41 c-14 -23 -30 -41 -37 -41 -11 0 -1019
624 -1041 645 -9 8 531 900 545 900 6 0 23 -8 39 -17z m-1921 -739 c408 -255
520 -330 515 -342 -5 -14 -500 -831 -530 -874 -10 -15 -71 21 -530 308 -285
178 -522 327 -526 331 -4 5 103 188 237 408 302 494 302 495 308 495 2 0 239
-147 526 -326z m1552 -970 c288 -179 524 -327 525 -328 5 -4 -548 -901 -555
-899 -5 1 -243 148 -530 328 l-521 326 41 67 c22 37 136 222 251 412 253 415
256 420 262 420 2 0 240 -147 527 -326z m-2405 -436 c282 -175 514 -322 516
-326 4 -7 -518 -871 -539 -892 -7 -7 -174 92 -533 316 -408 255 -521 330 -516
343 19 50 541 889 550 884 5 -3 240 -150 522 -325z m1545 -964 c288 -180 525
-328 527 -330 3 -2 -531 -888 -545 -903 -2 -2 -240 144 -529 325 -339 212
-524 333 -521 341 6 15 540 893 543 893 2 0 238 -147 525 -326z"/>
</g>
</svg>
